<?xml version="1.0" standalone="no"?>
<!DOCTYPE svg PUBLIC "-//W3C//DTD SVG 20010904//EN"
 "http://www.w3.org/TR/2001/REC-SVG-20010904/DTD/svg10.dtd">
<svg version="1.0" xmlns="http://www.w3.org/2000/svg"
 width="1724.000000pt" height="1724.000000pt" viewBox="0 0 1724.000000 1724.000000"
 preserveAspectRatio="xMidYMid meet">

<g transform="translate(0.000000,1724.000000) scale(0.100000,-0.100000)"
fill="#000000" stroke="none">
<path d="M8195 15034 c-27 -2 -102 -9 -165 -15 -63 -6 -225 -14 -360 -19 -227
-8 -253 -10 -355 -38 -138 -38 -224 -69 -367 -133 -202 -91 -757 -309 -786
-309 -4 0 -67 -24 -139 -54 -287 -117 -522 -260 -838 -510 -77 -61 -142 -113
-145 -116 -3 -3 -68 -53 -145 -110 -147 -111 -379 -330 -500 -472 -38 -46
-125 -139 -193 -208 -144 -148 -180 -197 -263 -362 -152 -305 -171 -339 -353
-640 -128 -213 -172 -303 -187 -383 -19 -106 -106 -465 -139 -573 -11 -34 -33
-136 -50 -227 -34 -182 -129 -481 -237 -750 -34 -82 -79 -206 -101 -275 -76
-236 -234 -652 -315 -830 -14 -30 -39 -90 -56 -133 -17 -43 -56 -117 -87 -165
-51 -80 -114 -202 -193 -376 -37 -80 -211 -304 -338 -434 -21 -22 -205 -250
-248 -308 -64 -86 -113 -169 -177 -298 -32 -67 -66 -132 -74 -146 -52 -88 -71
-161 -100 -393 -24 -193 -25 -223 -22 -642 l3 -440 38 -94 c21 -51 49 -130 64
-174 14 -45 69 -169 123 -277 114 -228 138 -283 175 -405 41 -136 144 -398
184 -467 11 -18 34 -69 52 -113 52 -125 102 -186 264 -321 86 -72 134 -97 275
-142 69 -22 170 -58 225 -79 l100 -38 686 -3 687 -3 169 45 c254 67 359 107
503 192 194 114 393 224 404 224 8 0 27 11 43 24 15 13 74 58 131 100 68 51
108 88 119 111 9 19 21 35 25 35 5 0 38 -17 73 -37 57 -32 65 -41 70 -74 4
-21 19 -57 35 -82 29 -45 218 -221 395 -366 55 -46 110 -91 122 -102 52 -44
195 -149 221 -163 62 -32 164 -63 477 -146 61 -16 164 -36 230 -44 66 -9 163
-23 215 -31 78 -12 237 -15 886 -15 784 0 794 0 985 25 279 36 426 68 824 182
128 36 215 67 265 95 41 22 112 60 157 84 99 52 179 100 345 207 261 169 355
237 426 310 51 53 87 80 120 92 48 18 71 30 199 103 l72 42 140 0 c134 0 144
-1 292 -44 342 -98 466 -144 690 -257 166 -83 224 -107 406 -170 187 -64 535
-198 663 -255 222 -98 425 -178 505 -199 49 -13 142 -38 205 -54 318 -85 400
-91 1329 -91 729 0 1055 9 1309 36 l52 5 0 135 c0 74 -3 134 -7 134 -5 0 -143
-9 -308 -20 -253 -17 -414 -20 -1026 -20 -721 0 -916 6 -1077 36 -188 34 -484
123 -662 198 -96 41 -223 95 -282 120 -131 55 -611 236 -626 236 -6 0 -26 7
-44 15 -18 8 -64 26 -103 41 -38 14 -148 64 -244 111 -245 119 -334 152 -691
257 -183 53 -304 70 -478 64 -121 -3 -130 -5 -175 -33 -27 -17 -72 -43 -101
-60 -29 -16 -60 -35 -67 -41 -8 -7 -46 -25 -85 -41 -84 -35 -148 -82 -195
-141 -19 -25 -70 -69 -114 -99 -284 -193 -499 -327 -625 -392 -36 -19 -93 -49
-128 -67 -34 -18 -95 -42 -135 -54 -39 -11 -94 -27 -122 -35 -216 -65 -463
-121 -685 -157 -129 -21 -173 -22 -951 -25 -779 -4 -822 -3 -940 16 -68 11
-162 25 -209 31 -47 6 -143 27 -215 46 -71 19 -164 44 -205 55 -119 31 -180
60 -245 114 -33 28 -80 66 -105 85 -56 44 -61 48 -195 161 -173 148 -253 227
-260 259 -8 39 -55 87 -91 96 -16 4 -47 24 -70 44 -22 21 -53 45 -67 55 -17
10 -27 26 -27 40 0 14 -12 33 -27 45 -38 30 -50 26 -188 -54 -38 -22 -84 -45
-104 -52 -21 -7 -82 -42 -136 -78 -54 -36 -104 -66 -111 -66 -6 0 -18 -7 -25
-16 -17 -21 -62 -50 -224 -143 -344 -197 -354 -202 -555 -255 -74 -19 -151
-40 -170 -46 -22 -6 -263 -10 -665 -10 l-630 0 -85 31 c-47 17 -147 51 -222
76 -135 44 -139 46 -234 126 -104 88 -102 84 -202 297 -71 150 -112 253 -171
428 -65 193 -82 233 -193 456 -50 100 -105 226 -123 281 -19 55 -44 123 -57
150 -23 50 -23 51 -23 480 0 354 3 456 18 575 21 170 26 186 82 305 24 50 57
119 73 155 27 56 115 205 139 235 5 6 53 66 107 135 55 69 104 130 110 135 17
15 193 220 268 312 76 92 98 130 188 327 35 76 94 186 131 243 38 58 73 121
80 141 7 20 43 109 82 197 107 245 220 545 337 890 31 94 87 247 123 340 96
248 173 501 202 660 14 77 36 176 49 220 29 97 109 420 131 530 9 44 28 107
44 140 28 61 48 95 206 355 49 80 142 251 208 380 146 286 168 321 264 407 41
38 107 106 146 153 122 147 377 398 497 490 178 137 205 158 350 274 352 280
548 389 978 542 172 62 558 216 730 293 110 48 210 85 322 117 37 10 133 18
300 24 135 5 290 15 345 21 151 16 1585 24 1655 9 85 -18 551 -170 585 -191
63 -37 194 -102 284 -140 52 -22 99 -43 105 -48 6 -5 64 -25 129 -46 64 -20
161 -59 215 -86 126 -66 173 -82 482 -164 269 -71 389 -133 566 -291 38 -34
98 -84 134 -111 58 -44 67 -56 87 -112 31 -89 54 -118 241 -303 153 -152 242
-234 437 -403 128 -111 167 -149 254 -248 167 -191 193 -223 238 -292 25 -38
70 -101 101 -139 31 -38 107 -146 170 -240 62 -93 140 -201 171 -240 32 -39
87 -112 122 -163 36 -51 95 -129 131 -175 37 -46 104 -132 149 -193 45 -60
101 -130 124 -155 88 -93 201 -236 271 -338 27 -41 56 -84 64 -95 8 -12 39
-51 69 -87 30 -36 73 -94 96 -130 23 -36 64 -92 91 -125 26 -33 79 -109 118
-170 38 -60 92 -141 121 -180 80 -108 109 -171 183 -405 46 -143 109 -315 132
-361 12 -22 34 -86 50 -142 16 -56 39 -114 50 -129 11 -15 20 -31 20 -35 0 -5
14 -25 31 -46 17 -21 42 -59 56 -84 13 -26 42 -68 63 -93 20 -25 68 -90 105
-145 171 -252 336 -465 461 -598 79 -83 248 -274 399 -451 44 -51 104 -121
134 -155 30 -34 73 -89 96 -122 46 -66 185 -227 198 -228 4 -1 7 92 7 207 l0
207 -33 41 c-17 22 -57 69 -88 105 -31 35 -90 103 -130 150 -173 201 -269 310
-354 399 -133 139 -305 359 -445 570 -64 96 -109 157 -144 195 -10 11 -26 36
-35 55 -9 19 -36 68 -59 107 -24 40 -58 115 -77 165 -18 51 -47 122 -63 158
-16 36 -44 106 -61 155 -173 505 -173 504 -270 633 -38 50 -84 117 -102 149
-38 67 -87 138 -139 203 -20 25 -63 83 -95 129 -31 47 -78 110 -104 141 -25
31 -73 95 -106 144 -57 84 -207 277 -263 341 -96 107 -155 179 -197 240 -51
74 -105 143 -143 185 -12 14 -48 63 -80 109 -31 46 -87 120 -123 165 -36 44
-119 160 -183 256 -65 96 -141 204 -170 240 -29 36 -70 92 -91 125 -72 114
-251 322 -400 464 -122 117 -204 199 -271 271 -29 30 -101 103 -162 161 -65
63 -131 138 -162 185 -77 116 -229 281 -490 530 -121 115 -146 134 -235 178
-55 27 -111 57 -124 67 -13 11 -34 19 -46 19 -13 0 -79 27 -147 59 -67 33
-179 82 -247 110 -68 28 -133 57 -145 66 -99 71 -130 88 -191 107 -38 12 -92
34 -120 49 -90 50 -190 96 -225 104 -19 4 -101 29 -183 56 -186 61 -319 95
-455 116 -91 13 -236 16 -972 18 -476 1 -887 1 -915 -1z"/>
<path d="M12690 11883 c-90 -31 -162 -96 -190 -170 -18 -48 -20 -78 -20 -266
0 -287 28 -436 101 -538 25 -35 123 -109 256 -192 89 -56 96 -59 190 -69 64
-6 107 -16 123 -28 123 -86 367 -133 446 -86 62 37 69 58 68 196 0 69 -8 173
-18 231 -9 59 -20 174 -24 256 -6 115 -12 156 -25 176 -16 25 -100 98 -163
142 -15 11 -60 45 -98 75 -39 31 -97 75 -130 99 -32 24 -66 51 -75 60 -34 34
-117 93 -150 107 -33 14 -256 19 -291 7z m244 -306 c49 -42 194 -154 342 -264
l71 -53 7 -118 c3 -64 13 -157 21 -207 8 -49 15 -98 15 -107 0 -30 -33 -20
-94 27 -32 25 -68 46 -80 47 -11 1 -34 2 -51 2 -105 4 -145 18 -253 90 -117
77 -125 89 -147 193 -15 70 -22 413 -8 426 3 4 33 7 66 7 56 0 63 -3 111 -43z"/>
<path d="M5555 11419 c-188 -65 -216 -75 -277 -104 -73 -34 -78 -49 -78 -256
l0 -156 118 -6 c64 -3 140 -11 168 -17 32 -7 131 -10 265 -8 l214 3 84 60 83
60 -5 135 c-5 143 -21 213 -59 270 -33 48 -84 60 -253 60 -138 0 -142 -1 -260
-41z"/>
<path d="M8747 11328 c-32 -4 -76 -17 -97 -29 -45 -25 -94 -90 -104 -136 -8
-36 15 -140 39 -177 21 -31 73 -56 118 -56 28 0 50 -11 99 -51 35 -28 74 -55
88 -61 14 -5 49 -21 78 -35 51 -25 59 -26 171 -20 181 8 289 44 321 106 22 44
25 73 10 117 -5 16 -14 47 -19 70 -11 40 -91 151 -134 184 -60 47 -172 75
-264 68 -32 -3 -69 -1 -83 3 -46 16 -164 25 -223 17z"/>
<path d="M5810 10580 c-166 -40 -209 -59 -261 -117 -39 -43 -46 -59 -83 -194
-19 -68 -26 -119 -26 -181 0 -86 4 -101 56 -217 27 -58 126 -177 155 -186 10
-4 52 -34 94 -69 71 -59 118 -90 261 -174 98 -56 268 -124 398 -158 49 -12
101 -31 115 -42 70 -51 117 -64 339 -87 84 -9 201 -26 260 -38 101 -21 132
-22 532 -22 470 0 832 16 925 40 33 9 101 25 150 36 222 50 329 95 435 182 30
26 80 66 110 90 58 45 125 131 161 207 34 70 59 364 39 441 -22 81 -168 202
-288 239 -74 23 -268 46 -360 42 -78 -2 -337 -62 -452 -103 -127 -45 -228 -75
-410 -122 l-165 -42 -255 1 -255 1 -130 36 c-71 19 -170 47 -220 61 -49 13
-111 32 -136 40 -26 9 -69 19 -95 22 -27 4 -65 15 -84 24 -151 77 -213 112
-266 151 -56 42 -121 77 -229 125 -45 20 -252 29 -315 14z m110 -330 c0 -5 -4
-10 -10 -10 -5 0 -10 5 -10 10 0 6 5 10 10 10 6 0 10 -4 10 -10z m137 -46 c-3
-3 -12 -4 -19 -1 -8 3 -5 6 6 6 11 1 17 -2 13 -5z m147 -83 c-7 -8 -35 9 -29
19 4 6 11 5 20 -3 7 -6 11 -14 9 -16z m-374 -51 c0 -5 -7 -10 -15 -10 -8 0
-15 5 -15 10 0 6 7 10 15 10 8 0 15 -4 15 -10z m567 -26 c-3 -3 -12 -4 -19 -1
-8 3 -5 6 6 6 11 1 17 -2 13 -5z m2255 -61 c-6 -2 -10 -9 -6 -14 3 -5 1 -9 -5
-9 -5 0 -12 4 -15 9 -6 9 10 19 29 19 6 0 4 -2 -3 -5z m412 -18 c-4 -8 -11
-12 -16 -9 -6 4 -5 10 3 15 19 12 19 11 13 -6z m-3154 -31 c0 -2 -7 -4 -15 -4
-8 0 -15 4 -15 10 0 5 7 7 15 4 8 -4 15 -8 15 -10z m815 -14 c-3 -5 -1 -10 6
-10 7 0 10 -3 6 -6 -3 -3 -16 1 -29 10 l-22 16 22 0 c13 0 20 -4 17 -10z
m1755 6 c0 -3 -4 -8 -10 -11 -5 -3 -10 -1 -10 4 0 6 5 11 10 11 6 0 10 -2 10
-4z m637 -38 c-3 -8 -6 -5 -6 6 -1 11 2 17 5 13 3 -3 4 -12 1 -19z m-2290 -4
c-3 -3 -12 -4 -19 -1 -8 3 -5 6 6 6 11 1 17 -2 13 -5z m1340 -80 c-3 -3 -12
-4 -19 -1 -8 3 -5 6 6 6 11 1 17 -2 13 -5z m-2020 -30 c-3 -3 -12 -4 -19 -1
-8 3 -5 6 6 6 11 1 17 -2 13 -5z m1340 -10 c-3 -3 -12 -4 -19 -1 -8 3 -5 6 6
6 11 1 17 -2 13 -5z m-107 -8 c0 -3 -4 -8 -10 -11 -5 -3 -10 -1 -10 4 0 6 5
11 10 11 6 0 10 -2 10 -4z m417 -2 c-3 -3 -12 -4 -19 -1 -8 3 -5 6 6 6 11 1
17 -2 13 -5z m-342 -14 c19 -8 19 -9 -2 -9 -12 -1 -25 4 -28 9 -7 12 2 12 30
0z m-975 -110 c0 -5 -7 -7 -15 -4 -8 4 -15 8 -15 10 0 2 7 4 15 4 8 0 15 -4
15 -10z m2510 -10 c0 -5 -5 -10 -11 -10 -5 0 -7 5 -4 10 3 6 8 10 11 10 2 0 4
-4 4 -10z m-80 -94 c0 -2 -7 -7 -16 -10 -8 -3 -12 -2 -9 4 6 10 25 14 25 6z
m-95 -26 c3 -5 1 -10 -4 -10 -6 0 -11 5 -11 10 0 6 2 10 4 10 3 0 8 -4 11 -10z
m-1577 -37 c-10 -2 -28 -2 -40 0 -13 2 -5 4 17 4 22 1 32 -1 23 -4z m197 -2
c-11 -9 -100 -23 -91 -13 4 3 25 9 49 13 23 3 44 7 47 8 2 0 0 -3 -5 -8z
m1248 2 c-7 -2 -21 -2 -30 0 -10 3 -4 5 12 5 17 0 24 -2 18 -5z m-1646 -9 c-3
-3 -12 -4 -19 -1 -8 3 -5 6 6 6 11 1 17 -2 13 -5z m810 -60 c-3 -3 -12 -4 -19
-1 -8 3 -5 6 6 6 11 1 17 -2 13 -5z m150 0 c-3 -3 -12 -4 -19 -1 -8 3 -5 6 6
6 11 1 17 -2 13 -5z m-110 -20 c-3 -3 -12 -4 -19 -1 -8 3 -5 6 6 6 11 1 17 -2
13 -5z m90 0 c-3 -3 -12 -4 -19 -1 -8 3 -5 6 6 6 11 1 17 -2 13 -5z"/>
<path d="M12583 10120 c-46 -11 -80 -35 -99 -72 -14 -26 -16 -54 -12 -162 5
-114 9 -140 33 -201 37 -91 75 -151 165 -255 90 -105 175 -185 215 -201 17 -7
39 -20 50 -30 11 -9 74 -45 140 -78 134 -68 221 -88 347 -78 80 7 118 25 155
74 l28 37 -3 275 c-3 302 -10 348 -61 418 -18 25 -53 52 -97 75 -70 36 -110
50 -329 109 -66 17 -148 42 -183 56 -91 34 -273 51 -349 33z m317 -309 c69
-22 179 -54 245 -72 66 -17 132 -37 147 -45 33 -17 36 -32 41 -226 l4 -148
-30 0 c-16 0 -70 22 -121 49 -50 27 -102 52 -115 56 -51 16 -266 249 -302 329
-21 47 -25 96 -6 96 6 0 68 -18 137 -39z"/>
<path d="M5255 9348 c-92 -32 -175 -198 -175 -352 0 -39 -7 -112 -14 -163 -12
-79 -23 -108 -73 -203 l-58 -110 -230 0 -231 0 -35 43 c-20 23 -81 99 -137
169 -56 69 -121 143 -144 162 -74 64 -312 126 -482 126 -27 0 -66 5 -87 12
-54 16 -106 -3 -157 -56 -101 -103 -266 -368 -307 -492 -10 -27 -23 -56 -31
-64 -7 -9 -34 -69 -59 -135 -88 -225 -85 -211 -85 -458 0 -295 15 -391 128
-832 23 -88 60 -233 82 -322 45 -184 79 -275 155 -419 45 -86 255 -421 286
-457 5 -7 38 -54 72 -105 301 -449 413 -575 554 -628 27 -10 67 -35 90 -55 53
-49 107 -63 208 -56 188 14 385 100 431 189 16 31 22 218 7 241 -6 10 -23 757
-18 765 5 6 167 41 284 61 91 16 167 21 292 21 166 0 169 0 184 -23 8 -13 49
-113 90 -221 41 -109 85 -212 97 -229 39 -52 128 -276 128 -320 0 -63 85 -277
152 -382 80 -125 194 -171 330 -131 141 41 442 294 594 500 58 78 192 323 236
431 l33 80 0 405 c0 589 -29 810 -150 1146 -78 220 -102 274 -189 439 -228
433 -392 650 -780 1035 -98 96 -193 198 -212 227 -93 140 -205 174 -569 172
-99 0 -193 -5 -210 -11z m1139 -947 c4 -7 17 -22 27 -32 11 -11 16 -19 12 -19
-5 0 -28 24 -52 53 -25 28 -34 43 -20 32 13 -11 28 -26 33 -34z m-799 -42
c-38 -10 -77 -18 -85 -18 -27 2 94 38 125 37 20 0 6 -6 -40 -19z m154 -89 c10
-5 21 -16 24 -24 7 -18 -13 -122 -54 -276 -41 -154 -44 -160 -72 -160 -30 0
-51 23 -124 140 -106 167 -128 221 -101 248 26 26 56 14 84 -35 76 -135 106
-183 113 -183 9 0 61 206 61 240 0 18 32 60 46 60 3 0 13 -4 23 -10z m-1779
-33 c15 -7 26 -23 28 -37 5 -46 25 -115 38 -130 7 -8 17 -28 23 -44 7 -17 16
-26 25 -23 7 3 66 9 130 13 94 5 116 4 120 -7 2 -8 16 -57 31 -109 16 -52 30
-99 32 -105 3 -10 -123 -45 -159 -45 -10 0 -36 -10 -58 -21 l-41 -22 6 -60 c4
-33 13 -84 21 -114 8 -30 14 -57 14 -62 0 -11 -102 -41 -141 -41 -33 0 -35 3
-67 73 -17 39 -32 80 -32 90 0 10 -7 33 -15 53 -22 53 -52 61 -192 52 -65 -4
-123 -6 -129 -4 -6 3 -13 18 -16 34 -4 27 1 33 50 61 29 17 59 31 65 31 6 0
42 12 80 26 61 23 68 29 63 48 -27 95 -51 293 -37 314 23 35 116 52 161 29z
m235 -9 c30 -26 32 -38 5 -38 -13 0 -24 10 -30 26 -16 42 -12 44 25 12z m2193
-300 c24 -24 14 -65 -21 -87 -50 -30 -97 -13 -97 35 0 43 88 82 118 52z m-512
-167 c-6 -8 -81 -51 -91 -51 -3 0 -5 6 -5 14 0 7 17 20 38 29 43 18 66 21 58
8z m596 -121 c21 -63 38 -124 38 -135 0 -41 -44 -59 -73 -31 -16 17 -79 210
-79 245 -1 28 18 42 52 39 22 -3 28 -15 62 -118z m-2732 -145 c0 -17 -2 -18
-24 -9 -23 9 -20 24 4 24 11 0 20 -7 20 -15z m2433 -430 c-3 -9 -8 -14 -10
-11 -3 3 -2 9 2 15 9 16 15 13 8 -4z m444 -77 c111 -64 191 -167 178 -228 -18
-80 -92 -135 -245 -180 -41 -13 -87 -34 -102 -48 -32 -30 -58 -25 -107 19 -29
27 -36 42 -48 113 -15 84 -11 144 12 199 19 46 82 130 102 139 10 3 53 7 95 7
62 1 84 -3 115 -21z m-1307 -32 c0 -3 -4 -8 -10 -11 -5 -3 -10 -1 -10 4 0 6 5
11 10 11 6 0 10 -2 10 -4z m-216 -140 c16 -31 16 -34 0 -69 -21 -44 -43 -50
-191 -51 -105 -1 -141 10 -116 35 7 7 10 24 7 39 -7 34 8 46 71 54 28 4 77 12
110 19 77 17 98 12 119 -27z m-914 20 c20 -7 61 -29 93 -50 45 -30 62 -50 87
-98 16 -34 30 -71 30 -82 0 -12 7 -47 15 -79 18 -69 12 -88 -53 -167 -31 -38
-57 -60 -76 -64 -16 -3 -90 -6 -166 -6 -135 0 -138 0 -177 29 -56 41 -77 120
-78 296 l0 130 55 37 c30 21 69 44 85 52 37 19 137 20 185 2z m-725 -196 c13
-47 31 -104 39 -127 20 -56 12 -55 -12 1 -18 40 -83 257 -82 274 1 16 33 -69
55 -148z m2370 101 c-3 -6 -11 -11 -17 -11 -6 0 -6 6 2 15 14 17 26 13 15 -4z
m-575 -245 c0 -6 -132 -28 -137 -22 -3 2 15 9 39 14 46 10 98 15 98 8z m-1650
-201 c0 -5 -11 10 -25 34 -14 23 -25 46 -25 50 1 10 50 -73 50 -84z"/>
<path d="M14741 9243 c-128 -27 -182 -54 -251 -123 -61 -60 -70 -97 -70 -271
1 -268 50 -379 268 -604 l112 -115 0 -51 c0 -61 16 -94 69 -142 86 -77 159
-97 362 -97 152 0 266 18 336 52 64 32 130 101 144 150 20 76 -6 243 -61 378
-25 62 -124 234 -150 260 -37 36 -300 416 -300 432 0 22 -73 120 -102 138 -47
29 -205 26 -357 -7z m230 -275 c17 -41 179 -281 283 -418 116 -155 185 -300
186 -392 0 -24 -5 -28 -56 -38 -32 -7 -110 -10 -180 -8 -113 3 -124 5 -148 27
-21 20 -25 30 -20 60 9 56 -11 89 -135 217 -131 137 -175 200 -196 281 -19 71
-20 238 -3 250 18 11 186 50 224 52 26 1 34 -4 45 -31z"/>
</g>
</svg>
